<svg xmlns="http://www.w3.org/2000/svg" viewBox="0 0 1200 675"><defs><linearGradient id="sky" x2="0" y2="1"><stop stop-color="#0b1c2d"/><stop offset=".58" stop-color="#355765"/><stop offset="1" stop-color="#70958b"/></linearGradient><linearGradient id="ground" x2="0" y2="1"><stop stop-color="#1d363b"/><stop offset="1" stop-color="#07171e"/></linearGradient><linearGradient id="train" x2="0" y2="1"><stop stop-color="#4b716b"/><stop offset=".4" stop-color="#263f3d"/><stop offset="1" stop-color="#0e252b"/></linearGradient><radialGradient id="moon"><stop stop-color="#f7ecd0"/><stop offset=".85" stop-color="#c5d7d0"/><stop offset="1" stop-color="#9bbcbf"/></radialGradient><linearGradient id="window"><stop stop-color="#ead4a2"/><stop offset="1" stop-color="#b0864f"/></linearGradient><radialGradient id="glow"><stop stop-color="#e0c486" stop-opacity=".65"/><stop offset="1" stop-color="#e0c486" stop-opacity="0"/></radialGradient><filter id="grain"><feTurbulence type="fractalNoise" baseFrequency=".6" numOctaves="3" stitchTiles="stitch"/><feColorMatrix type="saturate" values="0"/><feComponentTransfer><feFuncA type="linear" slope=".10"/></feComponentTransfer><feBlend in="SourceGraphic" mode="soft-light"/></filter><filter id="blur"><feGaussianBlur stdDeviation="14"/></filter></defs><g filter="url(#grain)"><rect width="1200" height="675" fill="url(#ground)"/><ellipse cx="646" cy="421" rx="440" ry="227" fill="#b59866" opacity=".13" filter="url(#blur)"/><g transform="translate(305 148) rotate(-8 300 180)"><path d="M0 0H590V335H0Z" fill="#d1c5a4"/><rect x="17" y="18" width="556" height="299" fill="none" stroke="#6f7668" stroke-width="2"/><path d="M438 18v299" stroke="#7c8576" stroke-dasharray="6 7"/><text x="43" y="66" font-family="serif" font-size="19" letter-spacing="7" fill="#4c655f">LUNAR EXPRESS</text><path d="M41 91H410" stroke="#88917c"/><text x="44" y="158" font-family="serif" font-size="40" fill="#3f5853">ONE WAY TO THE MOON</text><text x="44" y="219" font-family="monospace" font-size="24" fill="#68796a">23:59 — PLATFORM 07</text><text x="43" y="283" font-family="monospace" font-size="17" fill="#68796a">NO. 0001969     /     SEAT 01</text><g transform="translate(464 42)"><rect x="0" width="1" height="244" fill="#597266"/><rect x="5" width="2" height="244" fill="#597266"/><rect x="10" width="1" height="244" fill="#597266"/><rect x="15" width="2" height="244" fill="#597266"/><rect x="20" width="1" height="244" fill="#597266"/><rect x="25" width="2" height="244" fill="#597266"/><rect x="30" width="1" height="244" fill="#597266"/><rect x="35" width="2" height="244" fill="#597266"/><rect x="40" width="1" height="244" fill="#597266"/><rect x="45" width="2" height="244" fill="#597266"/><rect x="50" width="1" height="244" fill="#597266"/><rect x="55" width="2" height="244" fill="#597266"/><rect x="60" width="1" height="244" fill="#597266"/><rect x="65" width="2" height="244" fill="#597266"/><rect x="70" width="1" height="244" fill="#597266"/><rect x="75" width="2" height="244" fill="#597266"/></g></g></g></svg>